<mxfile host="app.diagrams.net" modified="2021-10-21T15:17:30.429Z" agent="5.0 (Macintosh; Intel Mac OS X 10_15_6) AppleWebKit/605.1.15 (KHTML, like Gecko) Version/15.0 Safari/605.1.15" etag="4m4GTTBRyq36jCeUB4J9" version="15.5.8" type="github">
  <diagram id="US1TuDzHFC5Q3lL1zmBH" name="Page-1">
    <mxGraphModel dx="701" dy="649" grid="1" gridSize="10" guides="1" tooltips="1" connect="1" arrows="1" fold="1" page="1" pageScale="1" pageWidth="827" pageHeight="1169" math="0" shadow="0">
      <root>
        <mxCell id="0" />
        <mxCell id="1" parent="0" />
        <mxCell id="nf0TP1nzTJlDCot0uYYk-1" value="" style="rhombus;whiteSpace=wrap;html=1;" vertex="1" parent="1">
          <mxGeometry x="70" y="180" width="80" height="80" as="geometry" />
        </mxCell>
        <mxCell id="nf0TP1nzTJlDCot0uYYk-2" value="" style="rhombus;whiteSpace=wrap;html=1;" vertex="1" parent="1">
          <mxGeometry x="300" y="180" width="80" height="80" as="geometry" />
        </mxCell>
        <mxCell id="nf0TP1nzTJlDCot0uYYk-3" value="" style="rhombus;whiteSpace=wrap;html=1;" vertex="1" parent="1">
          <mxGeometry x="510" y="180" width="80" height="80" as="geometry" />
        </mxCell>
        <mxCell id="nf0TP1nzTJlDCot0uYYk-4" value="" style="shape=cylinder3;whiteSpace=wrap;html=1;boundedLbl=1;backgroundOutline=1;size=15;" vertex="1" parent="1">
          <mxGeometry x="280" y="400" width="60" height="80" as="geometry" />
        </mxCell>
        <mxCell id="nf0TP1nzTJlDCot0uYYk-5" value="" style="endArrow=classic;startArrow=classic;html=1;rounded=0;entryX=0;entryY=0.5;entryDx=0;entryDy=0;" edge="1" parent="1" target="nf0TP1nzTJlDCot0uYYk-2">
          <mxGeometry width="50" height="50" relative="1" as="geometry">
            <mxPoint x="150" y="220" as="sourcePoint" />
            <mxPoint x="370" y="280" as="targetPoint" />
            <Array as="points">
              <mxPoint x="210" y="220" />
            </Array>
          </mxGeometry>
        </mxCell>
        <mxCell id="nf0TP1nzTJlDCot0uYYk-6" value="" style="endArrow=classic;html=1;rounded=0;entryX=0;entryY=0.5;entryDx=0;entryDy=0;exitX=1;exitY=0.5;exitDx=0;exitDy=0;" edge="1" parent="1" source="nf0TP1nzTJlDCot0uYYk-2" target="nf0TP1nzTJlDCot0uYYk-3">
          <mxGeometry width="50" height="50" relative="1" as="geometry">
            <mxPoint x="320" y="330" as="sourcePoint" />
            <mxPoint x="370" y="280" as="targetPoint" />
            <Array as="points">
              <mxPoint x="440" y="220" />
            </Array>
          </mxGeometry>
        </mxCell>
        <mxCell id="nf0TP1nzTJlDCot0uYYk-7" value="" style="endArrow=classic;html=1;rounded=0;entryX=1;entryY=1;entryDx=0;entryDy=0;exitX=0;exitY=1;exitDx=0;exitDy=0;" edge="1" parent="1" source="nf0TP1nzTJlDCot0uYYk-3" target="nf0TP1nzTJlDCot0uYYk-2">
          <mxGeometry width="50" height="50" relative="1" as="geometry">
            <mxPoint x="320" y="330" as="sourcePoint" />
            <mxPoint x="370" y="280" as="targetPoint" />
          </mxGeometry>
        </mxCell>
        <mxCell id="nf0TP1nzTJlDCot0uYYk-9" value="Text" style="text;html=1;strokeColor=none;fillColor=none;align=center;verticalAlign=middle;whiteSpace=wrap;rounded=0;" vertex="1" parent="1">
          <mxGeometry x="380" y="290" width="20" height="30" as="geometry" />
        </mxCell>
      </root>
    </mxGraphModel>
  </diagram>
</mxfile>
